<svg width="5260" height="690" viewBox="0 0 5260 690" fill="none" xmlns="http://www.w3.org/2000/svg">
<path d="M266 66C291.405 66 312 86.5949 312 112V222H202C176.595 222 156 242.595 156 268V378H46C20.5949 378 0 357.405 0 332V112C0 86.5949 20.5949 66 46 66H266Z" fill="white"/>
<path d="M578 378C603.405 378 624 398.595 624 424V644C624 669.405 603.405 690 578 690H358C332.595 690 312 669.405 312 644V534H422C447.405 534 468 513.405 468 488V378H578Z" fill="white"/>
<path d="M1180 247.7C1194.93 247.7 1210.8 248.167 1227.6 249.1C1244.4 250.033 1260.97 251.2 1277.3 252.6C1294.1 254 1309.5 255.867 1323.5 258.2L1318.6 301.6C1297.13 300.667 1275.43 299.967 1253.5 299.5C1232.03 298.567 1210.57 298.1 1189.1 298.1C1168.1 297.633 1151.53 298.1 1139.4 299.5C1127.27 300.9 1118.4 304.633 1112.8 310.7C1107.67 316.767 1105.1 327.033 1105.1 341.5C1105.1 359.233 1109.3 370.9 1117.7 376.5C1126.1 382.1 1138.47 386.767 1154.8 390.5L1254.2 412.9C1281.27 419.433 1301.1 429.467 1313.7 443C1326.77 456.533 1333.3 477.767 1333.3 506.7C1333.3 534.7 1327.93 555.7 1317.2 569.7C1306.93 583.7 1291.07 593.033 1269.6 597.7C1248.13 602.367 1220.83 604.7 1187.7 604.7C1175.57 604.7 1157.37 604.233 1133.1 603.3C1109.3 602.367 1082.93 599.567 1054 594.9L1058.2 551.5C1069.4 551.967 1081.3 552.667 1093.9 553.6C1106.5 554.067 1119.57 554.3 1133.1 554.3C1147.1 554.3 1161.33 554.3 1175.8 554.3C1201.47 554.3 1221.53 553.133 1236 550.8C1250.47 548.467 1260.73 544.033 1266.8 537.5C1272.87 530.5 1275.9 520.233 1275.9 506.7C1275.9 489.9 1271 478.7 1261.2 473.1C1251.4 467.5 1238.33 462.833 1222 459.1L1124 436.7C1105.33 432.033 1090.4 425.967 1079.2 418.5C1068 410.567 1059.83 400.533 1054.7 388.4C1049.57 375.8 1047 360.167 1047 341.5C1047 314.9 1051.67 294.833 1061 281.3C1070.33 267.767 1084.8 258.667 1104.4 254C1124 249.333 1149.2 247.233 1180 247.7ZM1629.27 247.7C1690.87 247.7 1721.67 278.967 1721.67 341.5V597H1661.47V358.3C1661.47 335.433 1657.74 319.8 1650.27 311.4C1643.27 302.533 1630.9 298.1 1613.17 298.1C1592.17 298.1 1571.17 303 1550.17 312.8C1529.17 322.6 1504.2 336.833 1475.27 355.5L1472.47 312.8C1499.07 292.733 1525.44 276.867 1551.57 265.2C1577.7 253.533 1603.6 247.7 1629.27 247.7ZM1481.57 107L1482.27 242.1C1482.27 257.5 1481.57 271.967 1480.17 285.5C1479.24 299.033 1477.6 310.933 1475.27 321.2L1481.57 331.7V597H1422.07V107H1481.57ZM1989.81 247.7C2015.01 247.7 2036.24 251.2 2053.51 258.2C2071.24 264.733 2084.54 275.933 2093.41 291.8C2102.27 307.667 2106.71 329.367 2106.71 356.9V597H2059.81L2050.71 522.8L2046.51 515.1V356.9C2046.51 335.9 2041.61 320.967 2031.81 312.1C2022.47 302.767 2004.27 298.1 1977.21 298.1C1959.47 298.1 1937.07 299.033 1910.01 300.9C1883.41 302.767 1857.04 304.867 1830.91 307.2L1825.31 263.1C1841.17 260.3 1858.44 257.733 1877.11 255.4C1896.24 253.067 1915.61 251.2 1935.21 249.8C1954.81 248.4 1973.01 247.7 1989.81 247.7ZM2078.71 387L2078.01 431.8L1914.91 432.5C1898.57 432.967 1887.14 437.4 1880.61 445.8C1874.07 453.733 1870.81 464.933 1870.81 479.4V501.1C1870.81 518.833 1875.01 531.9 1883.41 540.3C1891.81 548.233 1905.34 552.2 1924.01 552.2C1937.07 552.2 1951.77 549.867 1968.11 545.2C1984.91 540.067 2001.71 532.367 2018.51 522.1C2035.31 511.833 2050.71 498.767 2064.71 482.9V527C2059.57 533.533 2052.11 541.233 2042.31 550.1C2032.97 558.5 2021.54 566.9 2008.01 575.3C1994.94 583.233 1980.24 590 1963.91 595.6C1948.04 600.733 1930.77 603.3 1912.11 603.3C1892.04 603.3 1874.31 599.8 1858.91 592.8C1843.51 585.333 1831.37 574.6 1822.51 560.6C1814.11 546.133 1809.91 528.633 1809.91 508.1V471C1809.91 444.4 1818.07 423.867 1834.41 409.4C1851.21 394.467 1874.54 387 1904.41 387H2078.71ZM2326.39 247.7C2348.79 247.7 2370.95 250.733 2392.89 256.8C2414.82 262.4 2435.82 271.267 2455.89 283.4L2452.39 320.5C2430.45 313.967 2411.09 308.833 2394.29 305.1C2377.49 301.367 2359.52 299.5 2340.39 299.5C2320.79 299.5 2304.92 303 2292.79 310C2281.12 316.533 2272.49 328.9 2266.89 347.1C2261.29 365.3 2258.49 391.2 2258.49 424.8C2258.49 458.4 2261.05 484.533 2266.19 503.2C2271.79 521.867 2280.42 534.933 2292.09 542.4C2303.75 549.867 2318.69 553.6 2336.89 553.6C2350.42 553.6 2362.55 551.967 2373.29 548.7C2384.49 544.967 2396.15 539.133 2408.29 531.2C2420.89 523.267 2435.59 513.233 2452.39 501.1L2457.99 543.1C2439.32 560.367 2418.09 575.067 2394.29 587.2C2370.49 599.333 2344.82 605.4 2317.29 605.4C2274.35 605.4 2243.55 590.233 2224.89 559.9C2206.69 529.567 2197.59 484.767 2197.59 425.5C2197.59 381.167 2202.25 346.167 2211.59 320.5C2220.92 294.367 2235.15 275.7 2254.29 264.5C2273.42 253.3 2297.45 247.7 2326.39 247.7ZM2504.19 107V597H2457.99L2450.99 537.5L2444.69 532.6V298.8L2448.89 288.3C2447.02 275.233 2445.85 262.633 2445.39 250.5C2444.92 238.367 2444.69 225.533 2444.69 212V107H2504.19ZM2754.26 247.7C2805.59 247.7 2842.69 257.033 2865.56 275.7C2888.89 294.367 2900.56 322.133 2900.56 359C2901.02 389.333 2894.72 413.133 2881.66 430.4C2868.59 447.2 2847.82 455.6 2819.36 455.6H2620.56V409.4H2803.96C2819.36 409.4 2829.39 404.267 2834.06 394C2838.72 383.267 2841.06 371.6 2841.06 359C2840.59 337.067 2834.06 321.433 2821.46 312.1C2808.86 302.767 2787.39 298.1 2757.06 298.1C2732.32 298.1 2712.72 301.833 2698.26 309.3C2684.26 316.3 2674.22 328.9 2668.16 347.1C2662.56 364.833 2659.76 389.8 2659.76 422C2659.76 458.4 2663.26 486.167 2670.26 505.3C2677.72 524.433 2689.39 537.5 2705.26 544.5C2721.12 551.5 2742.12 555 2768.26 555C2786.46 555 2806.29 554.3 2827.76 552.9C2849.69 551.033 2869.29 548.933 2886.56 546.6L2892.86 586.5C2882.12 590.7 2868.82 594.2 2852.96 597C2837.56 599.8 2821.46 601.9 2804.66 603.3C2788.32 604.7 2773.62 605.4 2760.56 605.4C2721.36 605.4 2689.86 599.567 2666.06 587.9C2642.26 575.767 2624.76 556.633 2613.56 530.5C2602.82 503.9 2597.46 468.9 2597.46 425.5C2597.46 380.7 2602.82 345.467 2613.56 319.8C2624.76 293.667 2641.79 275.233 2664.66 264.5C2687.99 253.3 2717.86 247.7 2754.26 247.7ZM3494.93 256.1L3395.53 580.2C3394.13 585.333 3391.33 589.533 3387.13 592.8C3382.93 595.6 3378.03 597 3372.43 597H3318.53C3312.93 597 3307.8 595.367 3303.13 592.1C3298.93 588.367 3296.37 583.7 3295.43 578.1L3239.43 346.4C3237.57 337.533 3235.7 328.667 3233.83 319.8C3232.43 310.933 3230.57 301.833 3228.23 292.5H3219.83C3217.97 301.833 3215.87 310.933 3213.53 319.8C3211.67 328.667 3209.8 337.533 3207.93 346.4L3152.63 578.1C3151.23 583.7 3148.43 588.367 3144.23 592.1C3140.03 595.367 3134.9 597 3128.83 597H3075.63C3070.03 597 3065.13 595.6 3060.93 592.8C3056.73 589.533 3053.93 585.333 3052.53 580.2L2953.13 256.1H3014.73L3085.43 507.4C3087.77 515.8 3089.87 524.433 3091.73 533.3C3093.6 541.7 3095.23 550.1 3096.63 558.5H3105.73C3108.07 550.1 3110.17 541.7 3112.03 533.3C3114.37 524.433 3116.47 515.8 3118.33 507.4L3175.03 275C3175.97 269.4 3178.3 264.967 3182.03 261.7C3186.23 257.967 3191.37 256.1 3197.43 256.1H3251.33C3256.93 256.1 3261.6 257.967 3265.33 261.7C3269.53 264.967 3272.33 269.633 3273.73 275.7L3329.73 507.4C3331.6 515.8 3333.47 524.2 3335.33 532.6C3337.67 541 3339.77 549.633 3341.63 558.5H3350.73C3353.07 549.633 3354.93 541.233 3356.33 533.3C3357.73 524.9 3359.83 516.267 3362.63 507.4L3433.33 256.1H3494.93ZM3709.34 247.7C3748.54 247.7 3779.8 253.533 3803.14 265.2C3826.94 276.867 3843.97 296 3854.24 322.6C3864.5 348.733 3869.64 383.5 3869.64 426.9C3869.64 470.3 3864.5 505.3 3854.24 531.9C3843.97 558.033 3826.94 576.933 3803.14 588.6C3779.8 600.267 3748.54 606.1 3709.34 606.1C3670.6 606.1 3639.34 600.267 3615.54 588.6C3592.2 576.933 3575.17 558.033 3564.44 531.9C3554.17 505.3 3549.04 470.3 3549.04 426.9C3549.04 383.5 3554.17 348.733 3564.44 322.6C3575.17 296 3592.2 276.867 3615.54 265.2C3639.34 253.533 3670.6 247.7 3709.34 247.7ZM3709.34 298.1C3684.6 298.1 3665 302.067 3650.54 310C3636.54 317.467 3626.5 330.533 3620.44 349.2C3614.37 367.867 3611.34 393.767 3611.34 426.9C3611.34 460.033 3614.37 485.933 3620.44 504.6C3626.5 523.267 3636.54 536.567 3650.54 544.5C3665 551.967 3684.6 555.7 3709.34 555.7C3734.07 555.7 3753.67 551.967 3768.14 544.5C3782.6 536.567 3792.87 523.267 3798.94 504.6C3805 485.933 3808.04 460.033 3808.04 426.9C3808.04 393.767 3805 367.867 3798.94 349.2C3792.87 330.533 3782.6 317.467 3768.14 310C3753.67 302.067 3734.07 298.1 3709.34 298.1ZM4009.19 256.1L4016.89 321.2L4022.49 331.7V597H3962.99V256.1H4009.19ZM4176.49 247.7L4169.49 303.7H4149.89C4129.82 303.7 4109.75 307.9 4089.69 316.3C4069.62 324.233 4045.12 335.667 4016.19 350.6L4011.29 313.5C4036.49 292.967 4061.69 276.867 4086.89 265.2C4112.55 253.533 4137.29 247.7 4161.09 247.7H4176.49ZM4522.54 256.1L4415.44 381.4C4412.18 385.6 4408.21 390.033 4403.54 394.7C4398.88 398.9 4394.91 402.167 4391.64 404.5V405.9C4394.91 408.233 4398.88 412.2 4403.54 417.8C4408.21 422.933 4412.18 428.067 4415.44 433.2L4533.74 597H4464.44L4329.34 401.7L4453.24 256.1H4522.54ZM4303.44 107L4304.14 324.7C4304.14 339.167 4303.44 352.7 4302.04 365.3C4301.11 377.433 4299.48 390.267 4297.14 403.8C4299.48 416.867 4301.11 429.933 4302.04 443C4302.98 456.067 4303.44 468.667 4303.44 480.8V597H4243.94V107H4303.44ZM4361.54 382.8V426.2H4282.44V382.8H4361.54ZM4713.5 247.7C4728.43 247.7 4744.3 248.167 4761.1 249.1C4777.9 250.033 4794.46 251.2 4810.8 252.6C4827.6 254 4843 255.867 4857 258.2L4852.1 301.6C4830.63 300.667 4808.93 299.967 4787 299.5C4765.53 298.567 4744.06 298.1 4722.6 298.1C4701.6 297.633 4685.03 298.1 4672.9 299.5C4660.76 300.9 4651.9 304.633 4646.3 310.7C4641.16 316.767 4638.6 327.033 4638.6 341.5C4638.6 359.233 4642.8 370.9 4651.2 376.5C4659.6 382.1 4671.96 386.767 4688.3 390.5L4787.7 412.9C4814.76 419.433 4834.6 429.467 4847.2 443C4860.26 456.533 4866.8 477.767 4866.8 506.7C4866.8 534.7 4861.43 555.7 4850.7 569.7C4840.43 583.7 4824.56 593.033 4803.1 597.7C4781.63 602.367 4754.33 604.7 4721.2 604.7C4709.06 604.7 4690.86 604.233 4666.6 603.3C4642.8 602.367 4616.43 599.567 4587.5 594.9L4591.7 551.5C4602.9 551.967 4614.8 552.667 4627.4 553.6C4640 554.067 4653.06 554.3 4666.6 554.3C4680.6 554.3 4694.83 554.3 4709.3 554.3C4734.96 554.3 4755.03 553.133 4769.5 550.8C4783.96 548.467 4794.23 544.033 4800.3 537.5C4806.36 530.5 4809.4 520.233 4809.4 506.7C4809.4 489.9 4804.5 478.7 4794.7 473.1C4784.9 467.5 4771.83 462.833 4755.5 459.1L4657.5 436.7C4638.83 432.033 4623.9 425.967 4612.7 418.5C4601.5 410.567 4593.33 400.533 4588.2 388.4C4583.06 375.8 4580.5 360.167 4580.5 341.5C4580.5 314.9 4585.16 294.833 4594.5 281.3C4603.83 267.767 4618.3 258.667 4637.9 254C4657.5 249.333 4682.7 247.233 4713.5 247.7Z" fill="white"/>
</svg>
