<svg width="21529" height="3808" viewBox="0 0 21529 3808" fill="none" xmlns="http://www.w3.org/2000/svg">
<path d="M1550.2 2001.9C1484.37 1962.41 1463.01 1877.03 1502.51 1811.2C1542 1745.37 1627.38 1724.02 1693.21 1763.51L3165.59 2646.79C3231.42 2686.28 3252.77 2771.66 3213.28 2837.49C3173.79 2903.32 3088.41 2924.68 3022.58 2885.18L1550.2 2001.9Z" fill="url(#paint0_linear_5_151)"/>
<path d="M1531 205C1531 128.232 1593.23 66 1670 66C1746.77 66 1809 128.232 1809 205V1886C1809 1962.77 1746.77 2025 1670 2025C1593.23 2025 1531 1962.77 1531 1886V205Z" fill="url(#paint1_linear_5_151)"/>
<path d="M1648.28 2024.46C1582.7 2064.38 1497.18 2043.57 1457.27 1978C1417.36 1912.42 1438.16 1826.91 1503.73 1786.99L2970.41 894.274C3035.99 854.36 3121.5 875.163 3161.42 940.738C3201.33 1006.31 3180.53 1091.83 3114.95 1131.74L1648.28 2024.46Z" fill="#D9D9D9"/>
<path d="M449.275 2752.46C383.699 2792.38 298.184 2771.57 258.27 2706C218.356 2640.42 239.159 2554.91 304.735 2514.99L1441.48 1823.09C1507.06 1783.18 1592.57 1803.98 1632.48 1869.56C1672.4 1935.13 1651.6 2020.65 1586.02 2060.56L449.275 2752.46Z" fill="url(#paint2_linear_5_151)"/>
<path d="M47 1017C47 940.23 109.232 877.998 186 877.998C262.768 877.998 325 940.23 325 1017V2734C325 2810.77 262.768 2873 186 2873C109.232 2873 47 2810.77 47 2734V1017Z" fill="url(#paint3_linear_5_151)"/>
<path d="M1531 1890C1531 1813.24 1593.23 1751 1670 1751C1746.77 1751 1809 1813.24 1809 1890V3607C1809 3683.77 1746.77 3746 1670 3746C1593.23 3746 1531 3683.77 1531 3607V1890Z" fill="#D9D9D9"/>
<path d="M2956 1047C2956 970.23 3018.23 907.998 3095 907.998C3171.77 907.998 3234 970.23 3234 1047V2764C3234 2840.77 3171.77 2903 3095 2903C3018.23 2903 2956 2840.77 2956 2764V1047Z" fill="url(#paint4_linear_5_151)"/>
<path d="M119.197 1141.9C53.3662 1102.41 32.0144 1017.03 71.5062 951.2C110.998 885.369 196.379 864.017 262.209 903.509L1734.59 1786.79C1800.42 1826.28 1821.77 1911.66 1782.28 1977.49C1742.79 2043.32 1657.41 2064.68 1591.58 2025.18L119.197 1141.9Z" fill="#D9D9D9"/>
<path d="M119.197 2852.9C53.3662 2813.41 32.0144 2728.03 71.5062 2662.2C110.998 2596.37 196.379 2575.02 262.209 2614.51L1734.59 3497.79C1800.42 3537.28 1821.77 3622.66 1782.28 3688.49C1742.79 3754.32 1657.41 3775.68 1591.58 3736.18L119.197 2852.9Z" fill="url(#paint5_linear_5_151)"/>
<path d="M1599.2 309.899C1533.37 270.407 1512.01 185.026 1551.51 119.196C1591 53.3653 1676.38 32.0135 1742.21 71.5053L3160.44 922.303C3226.27 961.795 3247.62 1047.18 3208.13 1113.01C3168.64 1178.84 3083.26 1200.19 3017.43 1160.7L1599.2 309.899Z" fill="url(#paint6_linear_5_151)"/>
<path d="M1550.2 2001.9C1484.37 1962.41 1463.01 1877.03 1502.51 1811.2C1542 1745.37 1627.38 1724.02 1693.21 1763.51L3165.59 2646.79C3231.42 2686.28 3252.77 2771.66 3213.28 2837.49C3173.79 2903.32 3088.41 2924.68 3022.58 2885.18L1550.2 2001.9Z" fill="url(#paint7_linear_5_151)"/>
<path d="M1531 205C1531 128.232 1593.23 66 1670 66C1746.77 66 1809 128.232 1809 205V1886C1809 1962.77 1746.77 2025 1670 2025C1593.23 2025 1531 1962.77 1531 1886V205Z" fill="url(#paint8_linear_5_151)"/>
<path d="M1648.28 2024.46C1582.7 2064.38 1497.18 2043.57 1457.27 1978C1417.36 1912.42 1438.16 1826.91 1503.73 1786.99L2970.41 894.274C3035.99 854.36 3121.5 875.163 3161.42 940.738C3201.33 1006.31 3180.53 1091.83 3114.95 1131.74L1648.28 2024.46Z" fill="#171717"/>
<path d="M449.275 2752.46C383.699 2792.38 298.184 2771.57 258.27 2706C218.356 2640.42 239.159 2554.91 304.735 2514.99L1441.48 1823.09C1507.06 1783.18 1592.57 1803.98 1632.48 1869.56C1672.4 1935.13 1651.6 2020.65 1586.02 2060.56L449.275 2752.46Z" fill="url(#paint9_linear_5_151)"/>
<path d="M47 1017C47 940.23 109.232 877.998 186 877.998C262.768 877.998 325 940.23 325 1017V2734C325 2810.77 262.768 2873 186 2873C109.232 2873 47 2810.77 47 2734V1017Z" fill="url(#paint10_linear_5_151)"/>
<path d="M1531 1890C1531 1813.24 1593.23 1751 1670 1751C1746.77 1751 1809 1813.24 1809 1890V3607C1809 3683.77 1746.77 3746 1670 3746C1593.23 3746 1531 3683.77 1531 3607V1890Z" fill="#171717"/>
<path d="M2956 1047C2956 970.23 3018.23 907.998 3095 907.998C3171.77 907.998 3234 970.23 3234 1047V2764C3234 2840.77 3171.77 2903 3095 2903C3018.23 2903 2956 2840.77 2956 2764V1047Z" fill="url(#paint11_linear_5_151)"/>
<path d="M119.197 1141.9C53.3662 1102.41 32.0144 1017.03 71.5062 951.2C110.998 885.369 196.379 864.017 262.209 903.509L1734.59 1786.79C1800.42 1826.28 1821.77 1911.66 1782.28 1977.49C1742.79 2043.32 1657.41 2064.68 1591.58 2025.18L119.197 1141.9Z" fill="#D9D9D9"/>
<path d="M119.197 1141.9C53.3662 1102.41 32.0144 1017.03 71.5062 951.2C110.998 885.369 196.379 864.017 262.209 903.509L1734.59 1786.79C1800.42 1826.28 1821.77 1911.66 1782.28 1977.49C1742.79 2043.32 1657.41 2064.68 1591.58 2025.18L119.197 1141.9Z" fill="#171717"/>
<path d="M119.197 2852.9C53.3662 2813.41 32.0144 2728.03 71.5062 2662.2C110.998 2596.37 196.379 2575.02 262.209 2614.51L1734.59 3497.79C1800.42 3537.28 1821.77 3622.66 1782.28 3688.49C1742.79 3754.32 1657.41 3775.68 1591.58 3736.18L119.197 2852.9Z" fill="url(#paint12_linear_5_151)"/>
<path d="M1599.2 309.899C1533.37 270.407 1512.01 185.026 1551.51 119.196C1591 53.3653 1676.38 32.0135 1742.21 71.5053L3160.44 922.303C3226.27 961.795 3247.62 1047.18 3208.13 1113.01C3168.64 1178.84 3083.26 1200.19 3017.43 1160.7L1599.2 309.899Z" fill="url(#paint13_linear_5_151)"/>
<path d="M1374.65 1906.26L1154.87 1757.31C1093.51 1715.72 1076.58 1632.74 1116.74 1570.44C1155.7 1510 1234.87 1490.18 1297.72 1525.11L1329 1542.5L1421 1587.24C1444.56 1598.7 1469.55 1606.93 1495.31 1611.72L1572.53 1626.08C1590.14 1629.36 1608.01 1631 1625.92 1631H1655.91C1702.94 1631 1749.28 1619.64 1790.97 1597.89L1946 1517L1973.62 1500.43C2035 1463.6 2114.19 1478.14 2158.48 1534.38L2166.04 1543.97C2202.12 1589.79 2202.25 1654.32 2166.35 1700.28C2157.19 1712 2146.03 1722.02 2133.39 1729.88L2031.47 1793.21C2009.26 1807.01 1989 1823.73 1971.24 1842.93L1903.31 1916.35C1864.31 1958.51 1838.6 2011.25 1829.41 2067.95L1814.5 2160L1797.37 2293.55C1790.06 2350.52 1745.58 2395.58 1688.71 2403.63C1620.37 2413.31 1556.73 2366.88 1545.08 2298.85L1520.55 2155.55C1517.52 2137.89 1512.8 2120.57 1506.43 2103.83L1483.77 2044.22C1462.44 1988.11 1424.34 1939.93 1374.65 1906.26Z" fill="#171717"/>
<path d="M4322.4 2713V2427.4H5052C5179.2 2427.4 5248.8 2415.4 5289.6 2389C5340 2357.8 5368.8 2305 5368.8 2242.6C5368.8 2168.2 5330.4 2103.4 5265.6 2072.2C5232 2053 5169.6 2043.4 5092.8 2043.4H4797.6C4605.6 2043.4 4480.8 2009.8 4396.8 1937.8C4300.8 1853.8 4245.6 1724.2 4245.6 1587.4C4245.6 1381 4356 1203.4 4524 1145.8C4596 1119.4 4680 1112.2 4867.2 1112.2H5659.2V1397.8H4944C4792.8 1400.2 4780.8 1400.2 4730.4 1412.2C4663.2 1429 4622.4 1491.4 4622.4 1575.4C4622.4 1647.4 4656 1705 4713.6 1731.4C4761.6 1753 4800 1757.8 4915.2 1757.8H5172C5407.2 1757.8 5534.4 1793.8 5628 1889.8C5700 1961.8 5748 2103.4 5748 2240.2C5748 2413 5668.8 2571.4 5544 2648.2C5464.8 2698.6 5364 2713 5126.4 2713H4322.4ZM7294.35 1112.2V2713H6953.55V2053H6336.75V2713H5995.95V1112.2H6336.75V1767.4H6953.55V1112.2H7294.35ZM7466.57 2713L8128.97 1112.2H8520.17L9182.57 2713H8784.17L8630.57 2341H8020.97L7867.37 2713H7466.57ZM8325.77 1496.2L8097.77 2055.4H8553.77L8325.77 1496.2ZM9354.54 1112.2H10033.7C10364.9 1112.2 10552.1 1177 10676.9 1333C10772.9 1448.2 10835.3 1681 10835.3 1916.2C10835.3 2055.4 10808.9 2223.4 10768.1 2341C10708.1 2518.6 10600.1 2624.2 10427.3 2677C10338.5 2705.8 10247.3 2713 10033.7 2713H9354.54V1112.2ZM9695.34 1397.8V2427.4H10033.7C10182.5 2427.4 10292.9 2391.4 10350.5 2321.8C10417.7 2237.8 10460.9 2079.4 10460.9 1913.8C10460.9 1719.4 10403.3 1546.6 10314.5 1472.2C10249.7 1419.4 10170.5 1397.8 10033.7 1397.8H9695.34ZM12274.9 1112.2V1397.8H11830.9C11600.5 1397.8 11514.1 1424.2 11444.5 1515.4C11396.5 1580.2 11386.9 1616.2 11374.9 1774.6H12274.9V2060.2H11374.9C11398.9 2333.8 11518.9 2427.4 11845.3 2427.4H12274.9V2713H11830.9C11490.1 2713 11326.9 2667.4 11199.7 2533C11062.9 2391.4 10988.5 2168.2 10988.5 1901.8C10988.5 1618.6 11082.1 1393 11259.7 1241.8C11372.5 1145.8 11482.9 1112.2 11698.9 1112.2H12274.9ZM12765.2 1112.2L13125.2 2317L13458.8 1112.2H13840.4L14176.4 2317L14536.4 1112.2H14886.8L14368.4 2713H13982L13650.8 1556.2L13317.2 2713H12930.8L12412.4 1112.2H12765.2ZM15725.1 1100.2C16001.1 1100.2 16233.9 1191.4 16351.5 1347.4C16449.9 1474.6 16507.5 1688.2 16507.5 1928.2C16507.5 2451.4 16245.9 2722.6 15741.9 2722.6C15434.7 2722.6 15192.3 2621.8 15067.5 2441.8C14973.9 2309.8 14928.3 2134.6 14928.3 1918.6C14928.3 1613.8 15012.3 1381 15170.7 1256.2C15295.5 1155.4 15492.3 1100.2 15725.1 1100.2ZM15715.5 1371.4C15564.3 1371.4 15441.9 1429 15377.1 1532.2C15326.7 1611.4 15302.7 1738.6 15302.7 1909C15302.7 2283.4 15432.3 2453.8 15720.3 2453.8C16005.9 2453.8 16133.1 2283.4 16133.1 1906.6C16133.1 1537 16003.5 1371.4 15715.5 1371.4ZM17089.9 2105.8V2713H16749.1V1112.2H17531.5C17773.9 1112.2 17915.5 1138.6 18011.5 1205.8C18124.3 1282.6 18189.1 1412.2 18189.1 1558.6C18189.1 1803.4 18090.7 1954.6 17884.3 2026.6C18071.5 2077 18162.7 2221 18174.7 2470.6C18186.7 2619.4 18191.5 2653 18213.1 2713H17831.5C17819.5 2677 17817.1 2662.6 17812.3 2626.6C17807.5 2583.4 17800.3 2516.2 17797.9 2485C17766.7 2194.6 17665.9 2105.8 17363.5 2105.8H17089.9ZM17089.9 1820.2H17567.5C17742.7 1820.2 17812.3 1755.4 17812.3 1599.4C17812.3 1503.4 17769.1 1436.2 17694.7 1409.8C17668.3 1402.6 17625.1 1397.8 17567.5 1397.8H17089.9V1820.2ZM18805.5 1112.2V2713H18464.7V1112.2H18805.5ZM18817.5 1901.8L19429.5 1112.2H19875.9L19208.7 1901.8L19844.7 2713H19395.9L18817.5 1901.8ZM20018.5 2713V2427.4H20748.1C20875.3 2427.4 20944.9 2415.4 20985.7 2389C21036.1 2357.8 21064.9 2305 21064.9 2242.6C21064.9 2168.2 21026.5 2103.4 20961.7 2072.2C20928.1 2053 20865.7 2043.4 20788.9 2043.4H20493.7C20301.7 2043.4 20176.9 2009.8 20092.9 1937.8C19996.9 1853.8 19941.7 1724.2 19941.7 1587.4C19941.7 1381 20052.1 1203.4 20220.1 1145.8C20292.1 1119.4 20376.1 1112.2 20563.3 1112.2H21355.3V1397.8H20640.1C20488.9 1400.2 20476.9 1400.2 20426.5 1412.2C20359.3 1429 20318.5 1491.4 20318.5 1575.4C20318.5 1647.4 20352.1 1705 20409.7 1731.4C20457.7 1753 20496.1 1757.8 20611.3 1757.8H20868.1C21103.3 1757.8 21230.5 1793.8 21324.1 1889.8C21396.1 1961.8 21444.1 2103.4 21444.1 2240.2C21444.1 2413 21364.9 2571.4 21240.1 2648.2C21160.9 2698.6 21060.1 2713 20822.5 2713H20018.5Z" fill="#171717"/>
<defs>
<linearGradient id="paint0_linear_5_151" x1="2884.5" y1="2628.5" x2="872" y2="1455" gradientUnits="userSpaceOnUse">
<stop stop-color="#C7C7C7"/>
<stop offset="1" stop-color="#737373"/>
</linearGradient>
<linearGradient id="paint1_linear_5_151" x1="1670" y1="474.002" x2="1652.64" y2="2871.94" gradientUnits="userSpaceOnUse">
<stop stop-color="#C7C7C7"/>
<stop offset="1" stop-color="#737373"/>
</linearGradient>
<linearGradient id="paint2_linear_5_151" x1="610" y1="2480.5" x2="2029.18" y2="1606.47" gradientUnits="userSpaceOnUse">
<stop stop-color="#C7C7C7"/>
<stop offset="1" stop-color="#737373"/>
</linearGradient>
<linearGradient id="paint3_linear_5_151" x1="186" y1="877.998" x2="186" y2="2873" gradientUnits="userSpaceOnUse">
<stop stop-color="#D9D9D9"/>
<stop offset="1" stop-color="#C7C7C7"/>
</linearGradient>
<linearGradient id="paint4_linear_5_151" x1="3095" y1="1344" x2="3095" y2="2473" gradientUnits="userSpaceOnUse">
<stop stop-color="#D9D9D9"/>
<stop offset="1" stop-color="#C7C7C7"/>
</linearGradient>
<linearGradient id="paint5_linear_5_151" x1="1739.5" y1="3667" x2="209.5" y2="2750" gradientUnits="userSpaceOnUse">
<stop stop-color="#D9D9D9"/>
<stop offset="1" stop-color="#C7C7C7"/>
</linearGradient>
<linearGradient id="paint6_linear_5_151" x1="2809" y1="861.499" x2="1908" y2="320.999" gradientUnits="userSpaceOnUse">
<stop stop-color="#D9D9D9"/>
<stop offset="1" stop-color="#C7C7C7"/>
</linearGradient>
<linearGradient id="paint7_linear_5_151" x1="2884.5" y1="2628.5" x2="872" y2="1455" gradientUnits="userSpaceOnUse">
<stop stop-color="#1E1E1E"/>
<stop offset="1" stop-color="#484848"/>
</linearGradient>
<linearGradient id="paint8_linear_5_151" x1="1670" y1="474.002" x2="1652.64" y2="2871.94" gradientUnits="userSpaceOnUse">
<stop stop-color="#1E1E1E"/>
<stop offset="1" stop-color="#484848"/>
</linearGradient>
<linearGradient id="paint9_linear_5_151" x1="610" y1="2480.5" x2="2029.18" y2="1606.47" gradientUnits="userSpaceOnUse">
<stop stop-color="#1E1E1E"/>
<stop offset="1" stop-color="#484848"/>
</linearGradient>
<linearGradient id="paint10_linear_5_151" x1="186" y1="1277" x2="186" y2="2561.5" gradientUnits="userSpaceOnUse">
<stop stop-color="#171717"/>
<stop offset="1" stop-color="#1E1E1E"/>
</linearGradient>
<linearGradient id="paint11_linear_5_151" x1="3095" y1="1344" x2="3095" y2="2473" gradientUnits="userSpaceOnUse">
<stop stop-color="#171717"/>
<stop offset="1" stop-color="#1E1E1E"/>
</linearGradient>
<linearGradient id="paint12_linear_5_151" x1="1739.5" y1="3667" x2="349" y2="2845" gradientUnits="userSpaceOnUse">
<stop stop-color="#171717"/>
<stop offset="1" stop-color="#1E1E1E"/>
</linearGradient>
<linearGradient id="paint13_linear_5_151" x1="2809" y1="861.499" x2="1908" y2="320.999" gradientUnits="userSpaceOnUse">
<stop stop-color="#171717"/>
<stop offset="1" stop-color="#1E1E1E"/>
</linearGradient>
</defs>
</svg>
